<?xml version="1.0" standalone="no"?>
<!DOCTYPE svg PUBLIC "-//W3C//DTD SVG 20010904//EN"
 "http://www.w3.org/TR/2001/REC-SVG-20010904/DTD/svg10.dtd">
<svg version="1.0" xmlns="http://www.w3.org/2000/svg"
 width="492.000000pt" height="1587.000000pt" viewBox="0 0 492.000000 1587.000000"
 preserveAspectRatio="xMidYMid meet">
<metadata>
Created by potrace 1.13, written by Peter Selinger 2001-2015
</metadata>
<g transform="translate(0.000000,1587.000000) scale(0.100000,-0.100000)"
fill="#ffffff" stroke="none">
<path d="M3155 15839 c-52 -27 -394 -250 -450 -294 -11 -8 -81 -61 -155 -117
-197 -149 -477 -374 -600 -484 -19 -17 -78 -68 -130 -114 -384 -335 -815 -777
-1086 -1115 -417 -519 -652 -970 -719 -1380 -13 -79 -13 -309 0 -370 49 -236
178 -535 329 -762 303 -456 845 -927 1422 -1235 l95 -51 -44 89 c-172 342
-287 631 -395 989 -53 174 -120 476 -138 620 -3 28 -8 58 -9 67 -18 92 -25
424 -12 517 26 183 102 368 230 561 120 181 339 413 542 575 28 22 52 43 53
47 2 5 10 8 17 8 7 0 15 3 17 8 6 14 170 128 283 197 163 99 366 188 380 165
3 -4 -29 -59 -71 -121 -42 -63 -80 -123 -84 -134 -4 -11 -21 -49 -38 -85 -78
-172 -120 -387 -116 -597 4 -163 62 -389 151 -583 14 -30 37 -80 50 -110 22
-47 106 -205 138 -258 39 -65 86 -130 105 -147 l22 -20 -7 35 c-18 79 0 186
64 395 100 326 262 647 338 669 34 11 50 -33 57 -154 5 -97 11 -136 35 -230
23 -93 105 -261 225 -463 42 -71 76 -131 76 -134 0 -3 8 -17 19 -31 44 -63
149 -285 186 -397 56 -167 82 -395 60 -526 -42 -249 -156 -435 -449 -731 -131
-133 -153 -165 -131 -194 11 -15 29 -20 95 -22 119 -6 198 25 340 131 326 244
751 859 955 1381 38 98 51 135 62 171 5 18 33 129 40 160 9 39 9 281 0 365
-10 98 -17 150 -27 205 -5 28 -12 66 -15 85 -18 119 -88 421 -136 590 -32 113
-115 372 -129 405 -5 11 -21 52 -36 90 -14 39 -61 142 -104 230 -114 234 -190
450 -266 758 -20 81 -40 147 -44 147 -5 0 -64 -34 -132 -74 -67 -41 -166 -100
-218 -131 -52 -31 -158 -94 -235 -141 -77 -46 -148 -89 -157 -94 -17 -10 -18
7 -19 292 l0 303 -75 -149 -74 -149 0 89 c-1 49 -2 356 -3 683 -1 386 -6 595
-12 598 -5 1 -37 -11 -70 -28z"/>
<path d="M459 9138 c-39 -24 -84 -89 -105 -151 -44 -130 -13 -265 231 -992
113 -340 265 -779 340 -985 13 -36 47 -130 75 -210 28 -80 57 -161 64 -180 19
-50 59 -160 96 -265 17 -49 35 -99 40 -110 5 -11 18 -47 30 -81 l21 -60 1219
0 c799 1 1222 4 1228 11 5 6 23 48 40 95 17 47 42 117 57 155 81 218 196 535
327 900 206 576 390 1139 460 1405 57 221 27 415 -75 472 -17 10 -446 13
-2020 13 -1888 1 -2000 0 -2028 -17z"/>
<path d="M1255 5490 c-2 -3 -2 -26 0 -50 2 -25 7 -88 10 -140 3 -52 8 -115 10
-140 2 -25 7 -85 10 -135 4 -49 8 -106 10 -125 2 -19 7 -71 10 -115 4 -44 8
-98 10 -120 2 -22 6 -76 10 -120 3 -44 8 -96 10 -115 2 -19 7 -66 10 -105 3
-38 8 -86 10 -105 4 -34 10 -86 20 -190 3 -27 7 -72 10 -100 3 -27 7 -74 10
-102 3 -29 7 -64 10 -78 2 -14 7 -56 10 -95 3 -38 7 -81 10 -95 2 -14 7 -52
10 -85 3 -33 8 -73 10 -90 2 -16 9 -73 15 -125 6 -52 13 -106 16 -120 2 -14 6
-50 9 -80 3 -30 10 -77 15 -105 5 -27 12 -77 16 -110 8 -73 9 -80 24 -180 6
-44 14 -96 16 -115 3 -19 7 -42 9 -50 2 -8 7 -35 10 -60 7 -56 63 -396 70
-430 5 -24 8 -38 22 -120 22 -132 70 -362 113 -545 11 -49 23 -101 26 -115 27
-136 179 -625 228 -735 154 -343 281 -486 436 -492 150 -5 289 144 429 459 75
167 201 564 236 738 2 8 8 35 15 60 7 25 14 54 16 65 9 46 12 62 22 100 6 22
13 51 16 65 3 14 10 50 16 80 6 30 13 66 16 80 3 14 11 57 19 95 8 39 16 81
18 95 3 14 12 63 20 110 9 47 18 101 21 120 6 37 13 79 21 120 3 14 7 43 11
65 3 22 7 47 9 55 2 8 7 35 10 60 3 25 8 57 11 73 11 65 52 354 59 413 3 22 7
55 10 74 5 34 7 47 21 160 4 30 8 62 9 71 2 9 6 40 9 70 4 30 11 86 16 124 12
94 18 148 25 220 3 33 7 74 10 90 3 17 7 57 10 90 4 33 8 71 10 85 2 14 7 57
10 95 3 39 8 84 10 100 2 17 7 62 10 100 3 39 8 86 10 105 2 19 7 71 11 115 3
44 8 87 9 96 2 8 6 53 10 100 4 46 8 98 10 114 1 17 5 68 9 115 4 47 9 105 11
130 3 25 7 81 10 125 3 44 8 105 10 135 2 30 7 98 10 150 3 52 8 109 10 125 2
17 1 35 -3 40 -7 10 -2431 15 -2437 5z"/>
</g>
</svg>
